<?xml version="1.0" encoding="utf-8"?>
<!DOCTYPE svg PUBLIC "-//W3C//DTD SVG 20010904//EN" "http://www.w3.org/TR/2001/REC-SVG-20010904/DTD/svg10.dtd">
<svg version="1.0" width="584.25pt" height="100.5pt" viewBox="0 0 584.25 100.5" preserveAspectRatio="xMidYMid meet" xmlns="http://www.w3.org/2000/svg">
  <g transform="translate(0,100.5)scale(.075,.075)" fill="#FFF">
    <path id="path1" d="M 3244 -1165 l -29 -5 -32 14 -33 15 -18 29 -17 30 -109 316 -109 316 -24 26 -24 27 -67 -7 -67 -7 -55 -6 -55 -5 -28 22 -28 22 -24 49 -25 48 0 6 0 6 189 -3 189 -3 44 -30 43 -31 22 -33 22 -32 68 -205 68 -205 7 18 7 18 47 230 48 230 32 32 32 33 36 0 35 0 24 -11 24 -11 20 -37 20 -36 99 -277 99 -278 11 0 10 0 12 12 12 12 0 53 0 54 16 37 15 37 32 33 32 34 40 21 40 21 85 3 85 4 45 -23 45 -23 22 -34 23 -34 0 -42 0 -42 -23 -33 -22 -34 -34 -20 -34 -20 -46 0 -46 0 -38 19 -39 18 -26 41 -26 41 -3 4 -3 5 -11 -11 -11 -11 0 -44 1 -43 18 -10 18 -10 49 -50 49 -50 213 -3 214 -3 0 8 0 8 -104 294 -105 293 -5 5 -5 6 -134 -22 -134 -21 -31 0 -30 0 -30 25 -30 25 -21 45 -21 45 0 5 0 5 242 0 243 0 36 -10 36 -10 34 -23 34 -22 30 -46 30 -45 99 -282 100 -282 115 0 116 0 43 -80 44 -81 -469 3 -468 3 -45 17 -44 17 -16 -13 -15 -14 -32 -16 -32 -16 -41 0 -41 0 -38 19 -38 20 -33 37 -33 38 -22 50 -22 51 -58 167 -59 167 -3 -3 -3 -3 -45 -221 -44 -221 -16 -31 -15 -30 -23 -15 -23 -15 -30 -5 z M 722 -1150 l -330 0 -46 78 -45 77 225 5 226 5 -148 78 -149 77 -14 9 -15 9 53 58 53 58 -71 18 -72 17 -71 38 -72 37 -52 51 -52 51 -26 51 -26 52 -10 48 -11 48 6 43 6 44 35 37 34 38 45 13 46 13 67 -6 67 -5 60 -23 60 -22 69 -44 70 -45 54 -56 55 -56 29 -62 29 -63 6 -55 6 -56 195 0 195 0 -39 29 -40 28 -26 31 -26 31 -17 45 -17 45 6 35 7 35 25 30 25 30 47 18 47 18 76 -1 76 -2 59 -17 58 -17 51 -25 50 -25 50 -36 50 -36 111 -108 111 -109 90 3 91 3 -54 149 -54 148 0 10 0 9 112 -3 111 -3 57 -155 57 -155 214 -5 214 -5 36 -22 36 -23 11 -25 12 -26 0 -4 0 -5 -240 0 -240 0 0 -10 0 -10 15 -37 14 -38 61 -168 60 -168 0 -10 0 -9 -150 0 -150 0 -186 224 -186 223 -143 6 -143 7 -83 16 -83 15 -47 18 -47 18 19 -31 19 -31 0 -7 0 -8 -263 0 -264 0 -11 -24 -10 -24 -32 -35 -31 -35 126 -67 126 -67 30 -25 30 -25 13 -27 14 -26 7 -48 7 -47 -330 0 z m 1495 143 l 3 4 -57 151 -58 152 -67 0 -67 0 121 -155 121 -155 4 3 z m -1654 417 l 20 0 -5 68 -5 67 -26 50 -25 51 -46 51 -46 51 -52 26 -52 26 -21 0 -21 0 -12 -12 -12 -12 0 -36 0 -37 32 -64 32 -64 56 -56 57 -56 54 -26 53 -27 19 0 z m 1095 1 l 63 -1 -23 31 -23 31 -57 46 -57 47 -56 34 -57 34 -54 5 -54 4 -10 -27 -11 -28 21 -41 20 -41 38 -26 37 -26 50 -16 50 -16 30 -4 30 -4 63 -2 z M 5423 -1149 l -158 1 -58 14 -57 14 -33 16 -32 17 -25 19 -25 20 -22 36 -23 37 0 60 1 60 14 38 13 39 -31 11 -32 11 -55 29 -55 28 -43 36 -43 35 -30 51 -30 52 3 69 4 69 46 41 45 42 39 14 39 14 330 4 330 3 37 -10 37 -11 25 -31 26 -31 0 -9 0 -9 -265 0 -264 0 -52 -11 -52 -11 -24 -24 -23 -23 0 -46 0 -46 14 -32 14 -32 31 -29 31 -30 81 -45 82 -46 12 -20 13 -20 -15 -50 -14 -50 -6 -52 -5 -52 30 -31 30 -30 44 0 43 0 0 49 0 50 21 27 20 28 27 20 26 19 53 5 54 4 35 -15 36 -15 26 -33 25 -34 4 -20 3 -20 320 -3 320 -3 44 6 44 7 29 28 28 28 0 37 0 36 -14 27 -14 27 -29 26 -28 27 -50 24 -50 25 -67 23 -68 24 -5 -6 -5 -5 45 -127 45 -127 -116 3 -117 3 -112 315 -112 315 110 3 110 3 8 -8 7 -8 62 -175 61 -174 3 -3 3 -3 78 171 78 170 28 14 28 15 156 0 156 0 29 -15 29 -15 15 -22 16 -22 0 -13 0 -13 -123 0 -123 0 -52 -115 -52 -115 1 -8 0 -7 97 -47 97 -47 48 -41 47 -42 26 -45 27 -45 0 -53 0 -53 -20 -39 -20 -38 -51 -31 -51 -31 -57 -12 -57 -11 -358 0 -358 0 -38 65 -38 65 -7 0 -8 0 0 -19 0 -19 -26 -32 -26 -31 -29 -14 -28 -15 -158 1 z M 7412 -1149 l -317 1 -50 12 -51 12 -45 22 -46 22 -42 36 -42 36 -27 52 -27 51 0 87 0 86 30 43 31 44 59 30 59 30 96 0 96 0 36 -25 36 -24 16 -27 16 -27 0 -45 0 -44 -23 -34 -22 -34 -35 -17 -35 -18 -48 0 -48 0 -38 20 -39 19 -23 38 -22 38 -4 5 -4 4 -9 -14 -10 -15 0 -33 0 -34 15 -32 16 -33 30 -22 30 -22 41 -15 41 -14 193 0 194 0 0 8 0 7 -102 290 -101 290 -8 8 -7 9 -136 -21 -135 -21 -29 0 -29 0 -27 21 -27 21 -24 49 -25 48 0 6 0 5 246 0 247 0 39 -12 39 -12 43 -37 43 -38 18 -38 18 -38 124 -349 123 -349 0 -3 0 -4 -318 1 z " />
  </g>
</svg>